<?xml version="1.0" encoding="UTF-8" standalone="no"?>
<svg
   viewBox="0 0 256 256"
   version="1.1"
   id="svg1"
   sodipodi:docname="carrot-fill.svg"
   inkscape:version="1.4 (e7c3feb1, 2024-10-09)"
   xmlns:inkscape="http://www.inkscape.org/namespaces/inkscape"
   xmlns:sodipodi="http://sodipodi.sourceforge.net/DTD/sodipodi-0.dtd"
   xmlns="http://www.w3.org/2000/svg"
   xmlns:svg="http://www.w3.org/2000/svg">
  <defs
     id="defs1" />
  <sodipodi:namedview
     id="namedview1"
     pagecolor="#ffffff"
     bordercolor="#000000"
     borderopacity="0.25"
     inkscape:showpageshadow="2"
     inkscape:pageopacity="0.0"
     inkscape:pagecheckerboard="0"
     inkscape:deskcolor="#d1d1d1"
     inkscape:zoom="4.0273438"
     inkscape:cx="127.87585"
     inkscape:cy="128"
     inkscape:window-width="2560"
     inkscape:window-height="1318"
     inkscape:window-x="0"
     inkscape:window-y="31"
     inkscape:window-maximized="1"
     inkscape:current-layer="svg1" />
  <rect
     width="256"
     height="256"
     fill="none"
     id="rect1" />
  <rect
     style="fill:#0b0400;stroke-width:0;stroke-linecap:round;stroke-linejoin:round;paint-order:stroke fill markers;fill-opacity:1"
     id="rect2"
     width="256"
     height="256"
     x="0"
     y="0"
     ry="21.354025" />
  <path
     d="M 212.46114,88.594791 H 186.2643 a 51.492569,51.492569 0 0 1 -8.19859,62.161189 c -6.85494,6.99172 -15.77764,13.61334 -25.62559,19.72004 a 3.2182856,3.2182856 0 0 1 -3.95045,-0.4747 L 120.4584,141.97006 a 6.4365711,6.4365711 0 0 0 -9.24452,0.14482 6.6216225,6.6216225 0 0 0 0.32987,9.15602 l 24.0406,24.0406 a 3.2182856,3.2182856 0 0 1 -0.80458,5.14121 c -31.94953,16.59026 -66.336907,27.65312 -71.341341,29.21398 A 12.873142,12.873142 0 0 1 46.333241,192.56151 c 2.19648,-7.00782 23.33257,-72.62866 52.1845,-107.289599 a 3.2182856,3.2182856 0 0 1 4.746969,-0.209188 L 137.09694,118.903 a 6.4365711,6.4365711 0 0 0 9.42153,-0.34597 6.5894397,6.5894397 0 0 0 -0.48274,-8.93074 L 112.75865,76.349214 a 3.2182856,3.2182856 0 0 1 0.50688,-4.972251 51.492569,51.492569 0 0 1 54.13157,-1.609143 V 43.538793 a 6.4365711,6.4365711 0 0 1 6.87104,-6.436571 6.581394,6.581394 0 0 1 6.01015,6.653805 V 66.621946 L 201.4707,45.42149 a 6.4401505,6.4401505 0 0 1 9.10774,9.107748 l -21.20045,21.192411 h 22.86592 a 6.581394,6.581394 0 0 1 6.6538,6.010148 6.4365711,6.4365711 0 0 1 -6.43657,6.862994 z"
     id="path1"
     style="fill:#ff5f11;stroke-width:0.804571;fill-opacity:1" />
</svg>
